# xmcd
#
# Track frame offsets:
#	150
#	9374
#	32369
#	46503
#	57683
#	77366
#	93275
#	104335
#	118993
#	146697
#	167637
#	197319
#	226395
#	242776
#	267205
#	288013
#	298598
#	312049
#	335594
#
# Disc length: 4745 seconds
#
# Revision: 1
# Processed by: cddbd v1.5.2PL0 Copyright (c) Steve Scherf et al.
# Submitted via: audiograbber 1.83.01
#
DISCID=f8128713
DTITLE=Leo Kottke - Live At WDR Studio Köln
DYEAR=1977
DGENRE=Ballad
TTITLE0=Up Tempo
TTITLE1=Hear The Wind Howl/Busted Bicycle
TTITLE2=Buckarro
TTITLE3=Unknown
TTITLE4=Eight Miles High
TTITLE5=Tennessee Road
TTITLE6=Standing In My Shoes
TTITLE7=Bean Time (Bean Time Fisherman)
TTITLE8=Louise
TTITLE9=Scarlatti Rip-Off
TTITLE10=Egg Tooth/Morning Is A Long Way Home
TTITLE11=Shhadowland
TTITLE12=Pamela Brown
TTITLE13=The Last Steam Engine Train
TTITLE14=Tiny Island
TTITLE15=Air Proofing
TTITLE16=Power Failure
TTITLE17=San Antonio Rose/America The Beautiful/Vaseline/Machine Gun
TTITLE18=Crow Ryder Waltz/Jesu Of Joy Man´s Destring/Jack Fig
EXTD=
EXTT0=
EXTT1=
EXTT2=
EXTT3=
EXTT4=
EXTT5=
EXTT6=
EXTT7=
EXTT8=
EXTT9=
EXTT10=
EXTT11=
EXTT12=
EXTT13=
EXTT14=
EXTT15=
EXTT16=
EXTT17=
EXTT18=
PLAYORDER=
